<?xml version="1.0" encoding="utf-8"?>
<!-- Generator: Adobe Illustrator 26.0.3, SVG Export Plug-In . SVG Version: 6.00 Build 0)  -->
<svg version="1.1" id="Layer_1" xmlns="http://www.w3.org/2000/svg" xmlns:xlink="http://www.w3.org/1999/xlink" x="0px" y="0px"
	 viewBox="0 0 20 20" style="enable-background:new 0 0 20 20;" xml:space="preserve">
<style type="text/css">
	.st0{fill:#D5AB6F;}
</style>
<path class="st0" d="M10,0C4.5,0,0,4.6,0,10.3c0,4.5,2.8,8.3,6.7,9.7c0.5,0.1,0.4-0.2,0.4-0.5v-1.8c-3,0.4-3.2-1.7-3.4-2
	c-0.4-0.7-1.4-0.9-1.1-1.2c0.7-0.4,1.4,0.1,2.2,1.3c0.6,0.9,1.7,0.7,2.3,0.6c0.1-0.5,0.4-1,0.8-1.4c-3.1-0.6-4.5-2.5-4.5-4.9
	c0-1.1,0.4-2.2,1.1-3c-0.5-1.4,0-2.6,0.1-2.8c1.3-0.1,2.6,1,2.8,1C8.2,5.1,9.1,5,10,5c0.9,0,1.8,0.1,2.5,0.3c0.3-0.2,1.5-1.1,2.7-1
	c0.1,0.2,0.6,1.3,0.1,2.7c0.7,0.8,1.1,1.9,1.1,3c0,2.3-1.3,4.3-4.5,4.9c0.3,0.3,0.5,0.6,0.6,1c0.1,0.4,0.2,0.7,0.2,1.1v2.6
	c0,0.2,0,0.4,0.3,0.4c4-1.4,6.8-5.2,6.8-9.7C20,4.6,15.5,0,10,0z"/>
</svg>
