<svg width="50" height="89" viewBox="0 0 50 89" fill="none" xmlns="http://www.w3.org/2000/svg">
<path d="M32.6002 17.4C34.1002 15.6 35.1002 13.3 35.1002 10.8C35.1002 5.30005 30.6002 0.800049 25.1002 0.800049C19.6002 0.800049 15.1002 5.30005 15.1002 10.8C15.1002 13.3 16.0002 15.6 17.6002 17.4C7.60016 20.9 0.500164 31.3 0.600164 44.8C0.600164 65.7 7.60016 62.2001 9.80016 60.4001C11.7002 72.2001 14.2002 85.2 14.2002 85.2C14.2002 85.2 14.8002 88.8 18.9002 88.8C24.3002 88.8 23.9002 84.8 23.9002 84.8C23.9002 84.8 23.8002 58.1 23.8002 58C23.8002 57.6 23.9002 56.6 25.1002 56.6H25.0002C26.2002 56.6 26.3002 57.7 26.3002 58C26.3002 58.1 26.2002 84.8 26.2002 84.8C26.2002 84.8 25.9002 88.8 31.2002 88.8C35.3002 88.8 35.9002 85.2 35.9002 85.2C35.9002 85.2 38.5002 72.2001 40.3002 60.4001C42.4002 62.2001 49.4002 65.7 49.5002 44.8C49.6002 31.4 42.6002 20.9 32.6002 17.4Z" fill="#D5AB6F"/>
</svg>
